<?xml version="1.0" encoding="UTF-8"?>
<svg width="17px" height="16px" viewBox="0 0 17 16" version="1.1" xmlns="http://www.w3.org/2000/svg" xmlns:xlink="http://www.w3.org/1999/xlink">
    <!-- Generator: Sketch 52.2 (67145) - http://www.bohemiancoding.com/sketch -->
    <title>002-telephone</title>
    <desc>Created with Sketch.</desc>
    <g id="Welcome" stroke="none" stroke-width="1" fill="none" fill-rule="evenodd">
        <g id="Landing-//-betatesteur-//-Mobile" transform="translate(-30.000000, -705.000000)" fill="#FFFFFF" fill-rule="nonzero">
            <g id="Group-8" transform="translate(0.000000, 688.000000)">
                <g id="Group-6" transform="translate(29.000000, 17.000000)">
                    <g id="Group-4" transform="translate(1.000000, 0.000000)">
                        <g id="002-telephone">
                            <path d="M11.9144468,10.6288881 C11.4024509,10.1170714 10.7632713,10.1170714 10.2545365,10.6288881 C9.86646314,11.0185291 9.47838981,11.4081702 9.09683872,11.8044154 C8.99248287,11.9133828 8.90443262,11.9364971 8.77724892,11.8638521 C8.52614265,11.7251663 8.25873078,11.6128969 8.01740787,11.4610029 C6.89232132,10.7444596 5.94985753,9.82318956 5.1150107,8.78634805 C4.70084841,8.27122934 4.3323418,7.71978816 4.07471329,7.09900408 C4.02253536,6.97352644 4.03231872,6.89097537 4.13341346,6.78861203 C4.52148679,6.40887709 4.89977675,6.01923601 5.28132784,5.62959494 C5.81289047,5.08805988 5.81289047,4.45406763 5.27806672,3.90923053 C4.97478252,3.59883849 4.67149833,3.29505053 4.36821413,2.98465849 C4.05514657,2.66766236 3.74534013,2.34736419 3.42901145,2.0336701 C2.91701554,1.52845752 2.27783594,1.52845752 1.76910116,2.03697214 C1.37776671,2.42661322 1.00273786,2.82616042 0.604881173,3.20919741 C0.236374567,3.56251601 0.0504907033,3.99508365 0.0113572583,4.50029623 C-0.0506040295,5.32250494 0.148324316,6.09848504 0.428780671,6.85465289 C1.00273786,8.41982128 1.87671813,9.80998138 2.93658227,11.08457 C4.36821413,12.8082364 6.07704122,14.1719802 8.07610803,15.155989 C8.97617727,15.5984628 9.9088577,15.9385732 10.9230662,15.9947079 C11.6209459,16.0343325 12.2275143,15.8560221 12.7134213,15.3045809 C13.0460555,14.928148 13.4210844,14.5847356 13.7732854,14.2248129 C14.2950647,13.6898819 14.2983258,13.0426815 13.7798076,12.5143546 C13.1601948,11.8836644 12.5373208,11.2562762 11.9144468,10.6288881 Z" id="Shape"></path>
                            <path d="M11.8820601,7.72413793 L13.0333333,7.50414666 C12.8523744,6.32038411 12.3531773,5.24836316 11.5950218,4.39633348 C10.7931865,3.49890877 9.77919248,2.93321694 8.66223905,2.75862069 L8.5,4.05412484 C9.36423492,4.19030991 10.1504703,4.62680052 10.7713466,5.32169358 C11.3579032,5.97817547 11.7416609,6.8092536 11.8820601,7.72413793 Z" id="Shape"></path>
                            <path d="M14.2619849,2.77766207 C12.7392767,1.25673143 10.8126577,0.296331558 8.68587048,0 L8.5,1.32456636 C10.3372582,1.58162506 12.0029437,2.41349558 13.3183347,3.72378091 C14.5658116,4.96980155 15.3843566,6.5442861 15.6810345,8.27586207 L17,8.05093571 C16.6532801,6.04444973 15.7060555,4.22361727 14.2619849,2.77766207 Z" id="Shape"></path>
                        </g>
                    </g>
                </g>
            </g>
        </g>
    </g>
</svg>