<?xml version="1.0" encoding="UTF-8"?>
<svg width="130px" height="25px" viewBox="0 0 130 25" version="1.1" xmlns="http://www.w3.org/2000/svg" xmlns:xlink="http://www.w3.org/1999/xlink">
    <!-- Generator: Sketch 52.2 (67145) - http://www.bohemiancoding.com/sketch -->
    <title>Logo barre de menu</title>
    <desc>Created with Sketch.</desc>
    <g id="Symbols" stroke="none" stroke-width="1" fill="none" fill-rule="evenodd">
        <g id="Barre-de-menu" transform="translate(-121.000000, -18.000000)">
            <g id="Logo-barre-de-menu" transform="translate(121.000000, 18.000000)">
                <g id="Shape">
                    <path d="M38.8669643,24.3419643 L38.8669643,12.9008929 C38.8669643,11.6285714 38.6330357,10.4714286 38.1723214,9.45892857 C37.7107143,8.44732143 37.0544643,7.57589286 36.21875,6.86785714 C35.3883929,6.16607143 34.3892857,5.62232143 33.2455357,5.25446429 C32.1107143,4.88928571 30.8607143,4.70446429 29.5303571,4.70446429 C28.1991071,4.70446429 26.95625,4.89017857 25.8330357,5.25446429 C24.7017857,5.62410714 23.7080357,6.16607143 22.8785714,6.86785714 C22.0446429,7.57410714 21.3821429,8.44464286 20.9089286,9.45535714 C20.4348214,10.4669643 20.19375,11.6267857 20.19375,12.9 L20.19375,24.4053571 L20.2008929,24.4053571 C20.2517857,24.7 21.33125,24.9339286 22.6589286,24.9339286 C23.9866071,24.9339286 25.0660714,24.6982143 25.1169643,24.4053571 L25.1205357,24.4053571 L25.1205357,24.3892857 C25.1205357,24.3875 25.1214286,24.3848214 25.1214286,24.3830357 C25.1214286,24.38125 25.1205357,24.3785714 25.1205357,24.3767857 L25.1205357,13.9660714 C25.1205357,12.4035714 25.4892857,11.2071429 26.2178571,10.4125 C26.9375,9.62589286 28.0517857,9.22678571 29.5294643,9.22678571 C30.9830357,9.22678571 32.0919643,9.62589286 32.8241071,10.4142857 C33.5633929,11.2098214 33.9383929,12.4044643 33.9383929,13.9669643 L33.9383929,24.4053571 L33.9553571,24.4053571 C34.00625,24.7 35.0857143,24.9339286 36.4133929,24.9339286 C37.7741071,24.9339286 38.8776786,24.6883929 38.8776786,24.3848214 C38.8767857,24.3705357 38.8723214,24.3553571 38.8669643,24.3419643" fill="#FFFFFF" fill-rule="nonzero"></path>
                    <path d="M59.5946429,12.9008929 C59.5946429,11.6285714 59.3607143,10.4714286 58.9008929,9.45982143 C58.4383929,8.44732143 57.7830357,7.57589286 56.9473214,6.86875 C56.1169643,6.16696429 55.1178571,5.62410714 53.9741071,5.25625 C52.8392857,4.89017857 51.5892857,4.70625 50.2589286,4.70625 C48.9285714,4.70625 47.6848214,4.89107143 46.5607143,5.25625 C45.4294643,5.62410714 44.4366071,6.16785714 43.6071429,6.86875 C42.7723214,7.575 42.1107143,8.44642857 41.6366071,9.45714286 C41.1633929,10.46875 40.9214286,11.6285714 40.9214286,12.9008929 L40.9214286,24.4071429 L40.9321429,24.4071429 C40.9830357,24.7 42.0625,24.9357143 43.3892857,24.9357143 C44.7178571,24.9357143 45.7973214,24.7 45.8482143,24.4071429 L45.8482143,24.4035714 C45.8491071,24.3973214 45.8526786,24.3919643 45.8526786,24.3848214 C45.8526786,24.3785714 45.85,24.3714286 45.8482143,24.3660714 L45.8482143,13.9678571 C45.8482143,12.4044643 46.2178571,11.2089286 46.9455357,10.4133929 C47.6660714,9.62678571 48.7803571,9.22946429 50.2571429,9.22946429 C51.7116071,9.22946429 52.8196429,9.62767857 53.5517857,10.4151786 C54.2901786,11.2125 54.6660714,12.40625 54.6660714,13.9678571 L54.6660714,24.3785714 C54.6660714,24.3803571 54.6633929,24.3830357 54.6633929,24.3857143 C54.6633929,24.3883929 54.6660714,24.3910714 54.6660714,24.39375 L54.6660714,24.4080357 L54.6705357,24.4080357 C54.7214286,24.7008929 55.8008929,24.9366071 57.1285714,24.9366071 C58.45625,24.9366071 59.5357143,24.7008929 59.5866071,24.4080357 L59.59375,24.4080357 L59.5946429,12.9008929 Z" fill="#FFFFFF" fill-rule="nonzero"></path>
                    <path d="M17.8348214,10.45625 C17.3017857,9.225 16.5607143,8.16875 15.6321429,7.31696429 C14.70625,6.46607143 13.6116071,5.81517857 12.3803571,5.38392857 C11.1580357,4.95625 9.825,4.73839286 8.41785714,4.73839286 C7.42232143,4.73839286 6.49196429,4.81428571 5.65178571,4.96517857 C4.81607143,5.11517857 4.07232143,5.29285714 3.43839286,5.49017857 C2.79642857,5.69196429 2.25,5.91160714 1.81428571,6.14196429 C1.38303571,6.36875 1.075,6.54285714 0.872321429,6.66964286 L0.582142857,6.85 L0.586607143,6.86071429 C0.335714286,7.03125 0.525,7.92232143 1.02321429,8.88839286 C1.53214286,9.87410714 2.16875,10.5571429 2.44375,10.4142857 C2.44553571,10.4142857 2.44732143,10.4098214 2.44910714,10.4080357 L2.45178571,10.4142857 L2.77589286,10.2517857 C2.92142857,10.1785714 3.14732143,10.06875 3.45,9.92321429 C3.74285714,9.78303571 4.1,9.64196429 4.5125,9.49910714 C4.92589286,9.35714286 5.39553571,9.23839286 5.91071429,9.14553571 C6.42589286,9.05267857 6.99732143,9.00446429 7.60892857,9.00446429 C9.40446429,9.00446429 10.7946429,9.36875 11.7401786,10.0857143 C12.5625,10.7098214 13.0839286,11.4803571 13.3267857,12.4330357 C7.08928571,11.1133929 0,13.0214286 0,18.4848214 C0,19.3669643 0.184821429,20.2125 0.549107143,20.99375 C0.915178571,21.7758929 1.46160714,22.4678571 2.175,23.0535714 C2.88035714,23.6303571 3.75446429,24.0955357 4.77142857,24.4410714 C5.78482143,24.7830357 6.9625,24.95625 8.27053571,24.95625 C14.0044643,24.95625 18.6357143,23.0883929 18.6357143,14.7017857 C18.6375,13.1133929 18.3669643,11.6857143 17.8348214,10.45625 M8.34553571,20.9839286 C7.31964286,20.9839286 6.45178571,20.7678571 5.76607143,20.3410714 C5.12946429,19.9446429 4.81875,19.3607143 4.81875,18.5598214 C4.81875,16.6035714 7.44196429,14.8419643 13.5767857,16.0473214 C13.5767857,20.5982143 10.46875,20.9839286 8.34553571,20.9839286" fill="#FFFFFF" fill-rule="nonzero"></path>
                    <path d="M95.5964286,19.2383929 C96.1303571,20.4696429 96.8714286,21.5258929 97.7991071,22.3776786 C98.7258929,23.2294643 99.8205357,23.8794643 101.051786,24.3098214 C102.274107,24.7383929 103.60625,24.9571429 105.014286,24.9571429 C106.009821,24.9571429 106.940179,24.8803571 107.780357,24.7303571 C108.616964,24.58125 109.360714,24.4044643 109.99375,24.2053571 C110.635714,24.0026786 111.18125,23.7848214 111.617857,23.5544643 C112.047321,23.3258929 112.357143,23.1526786 112.559821,23.0258929 L112.85,22.8446429 L112.845536,22.8348214 C113.094643,22.6651786 112.90625,21.7723214 112.408929,20.8071429 C111.9,19.8214286 111.264286,19.1383929 110.988393,19.2803571 C110.984821,19.2821429 110.984821,19.2857143 110.983036,19.2866071 L110.977679,19.28125 L110.655357,19.44375 C110.509821,19.5169643 110.284821,19.6258929 109.980357,19.7723214 C109.688393,19.9107143 109.330357,20.0535714 108.91875,20.1973214 C108.505357,20.3375 108.036607,20.4589286 107.520536,20.5508929 C107.004464,20.6428571 106.435714,20.6919643 105.824107,20.6919643 C104.027679,20.6919643 102.638393,20.3276786 101.691964,19.6071429 C100.869643,18.9857143 100.348214,18.2133929 100.105357,17.2598214 C106.342857,18.5803571 113.433036,16.6723214 113.433036,11.2098214 C113.433036,10.3276786 113.248214,9.48392857 112.883929,8.70267857 C112.51875,7.91964286 111.972321,7.22678571 111.258929,6.64196429 C110.553571,6.06517857 109.680357,5.6 108.6625,5.25535714 C107.648214,4.9125 106.471429,4.73928571 105.163393,4.73928571 C99.4303571,4.73928571 94.7991071,6.60625 94.7991071,14.99375 C94.79375,16.58125 95.0642857,18.0107143 95.5964286,19.2383929 M105.086607,8.71071429 C106.111607,8.71071429 106.980357,8.92678571 107.666071,9.35446429 C108.304464,9.75178571 108.614286,10.3348214 108.614286,11.1366071 C108.614286,13.0928571 105.991071,14.8544643 99.8553571,13.6491071 C99.8544643,9.09642857 102.963393,8.71071429 105.086607,8.71071429" fill="#FFFFFF" fill-rule="nonzero"></path>
                    <path d="M78.9723214,10.45625 C78.4401786,9.225 77.6991071,8.16875 76.7705357,7.31696429 C75.8446429,6.46607143 74.75,5.81517857 73.51875,5.38392857 C72.2964286,4.95625 70.9633929,4.73839286 69.55625,4.73839286 C68.5598214,4.73839286 67.6303571,4.81428571 66.7892857,4.96517857 C65.9526786,5.11428571 65.2089286,5.29196429 64.5758929,5.49017857 C63.9348214,5.69196429 63.3883929,5.91160714 62.9535714,6.14107143 C62.5223214,6.36785714 62.2142857,6.54196429 62.0107143,6.66875 L61.7205357,6.84910714 L61.7258929,6.85982143 C61.475,7.03035714 61.6642857,7.92142857 62.1616071,8.8875 C62.6705357,9.87321429 63.30625,10.55625 63.5830357,10.4133929 C63.5848214,10.4133929 63.5866071,10.4089286 63.5883929,10.4071429 L63.5901786,10.4133929 L63.9142857,10.2508929 C64.0607143,10.1776786 64.2857143,10.0678571 64.5892857,9.92232143 C64.8821429,9.78214286 65.2392857,9.64107143 65.6508929,9.49821429 C66.0625,9.35535714 66.5339286,9.2375 67.0491071,9.14464286 C67.5633929,9.05178571 68.1348214,9.00357143 68.7473214,9.00357143 C70.5419643,9.00357143 71.93125,9.36785714 72.8785714,10.0848214 C73.7,10.7089286 74.2214286,11.4794643 74.4642857,12.4321429 C68.2276786,11.1116071 61.1375,13.0196429 61.1375,18.4830357 C61.1375,19.3651786 61.3214286,20.2107143 61.6857143,20.9919643 C62.0517857,21.7741071 62.5982143,22.4660714 63.3116071,23.0517857 C64.0169643,23.6285714 64.8910714,24.09375 65.9080357,24.4392857 C66.9223214,24.78125 68.0991071,24.9544643 69.4071429,24.9544643 C75.1410714,24.9544643 79.7723214,23.0866071 79.7723214,14.7 C79.7758929,13.1133929 79.5053571,11.6857143 78.9723214,10.45625 M69.4839286,20.9839286 C68.4571429,20.9839286 67.5892857,20.7678571 66.9035714,20.3410714 C66.2660714,19.9446429 65.9553571,19.3607143 65.9553571,18.5598214 C65.9553571,16.6035714 68.5785714,14.8419643 74.7133929,16.0473214 C74.7133929,20.5982143 71.60625,20.9839286 69.4839286,20.9839286" fill="#FFFFFF" fill-rule="nonzero"></path>
                    <path d="M94.1035714,20.7830357 C93.5428571,19.8455357 92.8767857,19.2133929 92.6035714,19.3526786 L92.6017857,19.3491071 L92.5946429,19.3544643 C92.5946429,19.3544643 92.5946429,19.3544643 92.5928571,19.3544643 C92.5928571,19.3544643 92.5910714,19.35625 92.5901786,19.3571429 L92.2767857,19.5848214 C92.0357143,19.7589286 91.6232143,19.9526786 91.0455357,20.1607143 C90.475,20.3660714 89.8508929,20.4714286 89.1866071,20.4714286 C88.775,20.4714286 88.3785714,20.4258929 88.0053571,20.3339286 C87.6553571,20.2508929 87.3455357,20.1 87.0830357,19.8901786 C86.8276786,19.6857143 86.6223214,19.4071429 86.4758929,19.0607143 C86.325,18.7044643 86.2482143,18.2267857 86.2482143,17.6428571 L86.2482143,9.81607143 L93.1642857,9.81607143 L93.2651786,9.61160714 C93.3455357,9.45 93.4482143,9.18839286 93.5794643,8.81339286 C93.7133929,8.42142857 93.7839286,7.99017857 93.7839286,7.53482143 C93.7839286,6.79910714 93.5803571,6.22321429 93.1794643,5.82232143 C92.7723214,5.41607143 92.1276786,5.21696429 91.2089286,5.21696429 L86.2482143,5.21696429 L86.2482143,0.520535714 L86.0142857,0.428571429 C85.8785714,0.375 85.6142857,0.291071429 85.2294643,0.178571429 C84.8178571,0.0598214286 84.3696429,0 83.8964286,0 C83.1294643,0 82.5071429,0.179464286 82.0526786,0.5375 C81.56875,0.916071429 81.3232143,1.51517857 81.3232143,2.31607143 L81.3232143,18.4866071 C81.3232143,20.3928571 81.9160714,21.9571429 83.0848214,23.1375 C84.2544643,24.3196429 85.9866071,24.9196429 88.2357143,24.9196429 C89.0142857,24.9196429 89.7428571,24.85 90.4080357,24.7107143 C91.0589286,24.5732143 91.6571429,24.4 92.1901786,24.1982143 C92.7223214,23.9955357 93.1821429,23.7741071 93.5580357,23.5419643 C93.9258929,23.3133929 94.20625,23.1267857 94.4107143,22.9732143 L94.6785714,22.7714286 L94.6732143,22.7625 C94.8946429,22.5651786 94.6526786,21.7008929 94.1035714,20.7830357" fill="#FFFFFF" fill-rule="nonzero"></path>
                    <path d="M122.085714,21.5205357 C122.085714,19.5982143 123.645536,18.0392857 125.567857,18.0392857 C127.489286,18.0392857 129.047321,19.5982143 129.047321,21.5205357 C129.047321,23.4428571 127.490179,25 125.567857,25 C123.644643,25.0017857 122.085714,23.4428571 122.085714,21.5205357" fill="#D7006D" fill-rule="nonzero"></path>
                    <path d="M119.816964,0.526785714 L119.584821,0.433928571 C119.448214,0.378571429 119.191071,0.295535714 118.819643,0.183928571 C118.420536,0.0633928571 117.975893,0.00267857143 117.500893,0.00267857143 C116.707143,0.00267857143 116.072321,0.191071429 115.615179,0.5625 C115.134821,0.953571429 114.890179,1.54553571 114.890179,2.31964286 L114.891964,24.3892857 C114.891964,24.3928571 114.890179,24.3946429 114.890179,24.3964286 C114.890179,24.4 114.891964,24.4035714 114.891964,24.4053571 L114.891964,24.41875 L114.895536,24.41875 C114.947321,24.7125 116.026786,24.9473214 117.353571,24.9473214 C118.68125,24.9473214 119.760714,24.7125 119.811607,24.41875 L119.81875,24.41875 L119.816964,0.526785714 Z" fill="#FFFFFF" fill-rule="nonzero"></path>
                </g>
            </g>
        </g>
    </g>
</svg>