<svg xmlns="http://www.w3.org/2000/svg" width="50" height="50" viewBox="0 0 50 50">
    <g fill="#000" fill-rule="nonzero" opacity=".6">
        <path d="M36.104 10.546h-21.15l14.489-8.463a.96.96 0 0 1 1.318.358l3.27 5.728a.96.96 0 0 0 1.318.358.983.983 0 0 0 .354-1.334l-3.27-5.729A2.881 2.881 0 0 0 28.477.392L11.113 10.534l-.019.012H2.896C1.3 10.546 0 11.86 0 13.476V47.07C0 48.686 1.3 50 2.896 50h33.208C37.7 50 39 48.686 39 47.07V13.476c0-1.616-1.3-2.93-2.896-2.93zm.965 36.524a.972.972 0 0 1-.965.977H2.896a.972.972 0 0 1-.965-.977V13.476c0-.539.433-.977.965-.977h33.208c.532 0 .965.438.965.977V47.07zM43.707 20.293A1.008 1.008 0 0 0 43 20c-.263 0-.521.107-.707.293A1.008 1.008 0 0 0 42 21c0 .263.107.521.293.707.186.186.444.293.707.293.263 0 .521-.107.707-.293.186-.186.293-.444.293-.707 0-.263-.107-.521-.293-.707zM49.617 30.366l-3.949-6.885a.95.95 0 0 0-1.303-.352.964.964 0 0 0-.35 1.312l3.95 6.886a.966.966 0 0 1-.35 1.313l-6.138 3.567a.964.964 0 0 0-.349 1.312.953.953 0 0 0 1.304.352l6.137-3.567a2.897 2.897 0 0 0 1.048-3.938z"/>
        <path d="M25.707 15.293A1.007 1.007 0 0 0 25 15c-.263 0-.521.107-.707.293A1.008 1.008 0 0 0 24 16c0 .263.107.521.293.707.186.186.444.293.707.293.263 0 .521-.107.707-.293.186-.186.293-.444.293-.707 0-.263-.107-.521-.293-.707z"/>
        <path d="M34.026 15h-3.799a.968.968 0 0 0-.974.962c0 .53.436.961.974.961h2.825v13.709l-7.733-7.634a.98.98 0 0 0-1.377 0l-5.16 5.094a.953.953 0 0 0 0 1.36.983.983 0 0 0 1.377 0l4.471-4.414 8.415 8.307.007.006v4.726H8.326l7.07-6.98 5.254 5.185a.983.983 0 0 0 1.377 0 .953.953 0 0 0 0-1.36l-5.941-5.865a.98.98 0 0 0-1.378 0l-7.76 7.66V16.923H20c.538 0 .974-.43.974-.961A.968.968 0 0 0 20 15H5.974a.968.968 0 0 0-.974.962v23.076c0 .532.436.962.974.962h28.052c.538 0 .974-.43.974-.962V15.962a.968.968 0 0 0-.974-.962z"/>
        <path d="M14 20c-1.654 0-3 1.346-3 3s1.346 3 3 3 3-1.346 3-3-1.346-3-3-3zm0 4.125a1.126 1.126 0 0 1 0-2.25 1.126 1.126 0 0 1 0 2.25z"/>
    </g>
</svg>
