<svg xmlns="http://www.w3.org/2000/svg" width="618" height="540" viewBox="0 0 618 540">
    <g fill="none" fill-rule="evenodd">
        <path fill="#BDF2EE" d="M63.373 540.338l-.001-519.267h64.857V.657h51.922v20.414h32.05V136.74h112.387v54.43h112.386l-.001-115.666h32.05V55.088h51.923v20.415h64.853v61.236h112.39v403.6z"/>
        <path fill="#96E0DB" d="M530.471 136.739H585.8v-13.61H530.47zM500.867 109.52h75.696V95.913h-75.696zM500.867 163.955h68.187v-13.608h-68.187zM500.867 191.17h84.932v-13.607h-84.932zM530.471 226.739H585.8v-13.61H530.47zM500.867 253.955h68.187v-13.608h-68.187zM500.867 281.17h84.932v-13.607h-84.932zM530.471 316.739H585.8v-13.61H530.47zM500.867 343.955h68.187v-13.608h-68.187zM500.867 371.17h84.932v-13.607h-84.932zM530.471 406.739H585.8v-13.61H530.47zM500.867 433.955h68.187v-13.608h-68.187zM500.867 461.17h84.932v-13.607h-84.932zM500.867 487.955h68.187v-13.608h-68.187zM500.867 515.17h84.932v-13.607h-84.932zM127.266 136.739h84.935v-13.61h-84.935zM141.967 109.52h70.234V95.913h-70.234zM127.266 163.955h70.388v-13.608h-70.388zM141.967 191.17h70.234v-13.607h-70.234zM127.266 218.389h84.935V204.78h-84.935zM127.266 245.605h47.854v-13.609h-47.854zM138.426 272.82h73.775v-13.606h-73.775zM127.266 300.038h70.388V286.43h-70.388zM127.266 327.255h84.935v-13.609h-84.935zM127.266 82.304h22.32V68.697h-22.32zM127.266 55.088h74.806V41.479h-74.806zM127.266 354.472h84.935v-13.608h-84.935zM138.038 381.688H212.2V368.08h-74.163zM185.983 245.605H212.2v-13.609h-26.218zM158.618 82.304H212.2V68.697h-53.583z"/>
        <path fill="#6BCFC7" d="M47.772 404.175c1.207 0 2.404.046 3.588.135 8.286-22.626 30.011-38.773 55.508-38.773 32.637 0 59.095 26.458 59.095 59.095v115.706H47.773v-41.735c-26.076 0-47.214-21.138-47.214-47.214 0-26.076 21.138-47.214 47.213-47.214M422.686 281.767c32.637 0 59.095 26.459 59.095 59.095v199.476H269.554V361.754c0-30.393 24.64-55.032 55.034-55.032 16.35 0 31.032 7.133 41.112 18.454 6.873-25.022 29.781-43.409 56.986-43.409"/>
        <path fill="#96E0DB" d="M324.588 223.792c10.64 0 19.267 8.627 19.267 19.266 0 10.642-8.626 19.269-19.267 19.269-10.64 0-19.268-8.627-19.268-19.269 0-10.64 8.627-19.266 19.268-19.266"/>
        <path fill="#6BCFC7" d="M344.386 223.26c-5.067-5.066-12.067-8.201-19.798-8.201a27.912 27.912 0 0 0-19.799 8.202 27.912 27.912 0 0 0-8.2 19.797 27.911 27.911 0 0 0 8.2 19.8 27.907 27.907 0 0 0 19.799 8.2 27.909 27.909 0 0 0 19.798-8.2 27.911 27.911 0 0 0 8.2-19.8c0-7.73-3.133-14.732-8.2-19.797zm-19.798-16.733c10.086 0 19.22 4.091 25.83 10.7 6.61 6.61 10.701 15.744 10.701 25.831 0 10.088-4.09 19.221-10.7 25.831-6.611 6.612-15.745 10.7-25.831 10.7-10.088 0-19.22-4.088-25.832-10.7-6.61-6.61-10.7-15.743-10.7-25.83 0-10.086 4.09-19.221 10.7-25.831 6.611-6.61 15.744-10.7 25.832-10.7z"/>
        <path fill="#6BCFC7" d="M324.588 99.155c20.9 0 37.842 16.943 37.842 37.844 0 20.9-16.942 37.844-37.842 37.844-20.901 0-37.843-16.944-37.843-37.844 0-20.901 16.942-37.844 37.843-37.844zm0-32.158c38.66 0 70 31.34 70 70.002 0 17.704-6.576 33.873-17.415 46.198l.003.005-52.588 59.856-52.59-59.856.003-.005c-10.838-12.325-17.415-28.494-17.415-46.198 0-38.661 31.34-70.002 70.002-70.002zM758.65 205.153v65.93c0 7.295-2.963 13.9-7.738 18.68-4.783 4.78-11.386 7.737-18.683 7.737h-68.08c-7.298 0-13.901-2.957-18.684-7.737-4.775-4.78-7.738-11.385-7.738-18.679V124.867a17.83 17.83 0 0 0-5.232-12.646 17.852 17.852 0 0 0-12.647-5.238H491.07c-4.94 0-9.41 2.003-12.647 5.238a17.83 17.83 0 0 0-5.237 12.645V220.91a26.331 26.331 0 0 1-7.738 18.677 26.336 26.336 0 0 1-18.678 7.739h-89.918v-8.533h89.918a17.83 17.83 0 0 0 12.646-5.238 17.827 17.827 0 0 0 5.238-12.645v-96.042a26.335 26.335 0 0 1 7.737-18.68c4.78-4.779 11.386-7.738 18.68-7.738h128.777c7.289 0 13.892 2.96 18.675 7.739a26.324 26.324 0 0 1 7.737 18.678v146.216a17.84 17.84 0 0 0 5.24 12.647 17.817 17.817 0 0 0 12.648 5.237h68.08c4.944 0 9.414-2 12.648-5.237a17.84 17.84 0 0 0 5.24-12.647v-65.93h8.534"/>
        <path fill="#FFD4A8" d="M207.957 540.338h103.27V395.547h-103.27z"/>
        <path fill="#DDA272" d="M127.266 540.338h80.69V395.547h-80.69z"/>
        <path fill="#BD885C" d="M155.837 424.385h23.55v-28.838h-23.55zM155.837 540.338h23.55v-28.84h-23.55z"/>
        <path fill="#AA836D" d="M293.906 424.87c5.67-1.006 10.058-7.853 10.058-16.147H280.96c0 8.294 4.387 15.141 10.056 16.147v15.958h-4.87v4.09h12.632v-4.09h-4.872V424.87zm-59.004 20.049h17.342v-4.09h-17.342v4.09zm6.141-6.135v-23.8h1.807l-3.613-8.307-3.613 8.307h1.806v23.8h3.613zm8.672 0v-23.8h1.806l-3.613-8.307-3.613 8.307h1.807v23.8h3.613zm18.756-29.934c5.67 1.005 10.056 7.85 10.056 16.148h-10.056v13.224c0 .72.206 1.371.54 1.844.332.472.794.762 1.303.762.508 0 .969-.29 1.303-.762.332-.473.539-1.124.539-1.844v-.001h2.89c0 1.85-.53 3.524-1.386 4.737-.856 1.212-2.04 1.96-3.346 1.96-1.307 0-2.49-.748-3.348-1.96-.856-1.213-1.386-2.886-1.386-4.736v-13.224h-10.057c0-8.297 4.387-15.143 10.057-16.148v-2.173h2.89v2.173z"/>
        <path fill="#FFD4A8" d="M112.915 540.338h53.447V447.08h-53.447z"/>
        <path fill="#DDA272" d="M47.772 540.338h65.143V447.08H47.772z"/>
        <path fill="#BD885C" d="M72.543 466.182h15.6V447.08h-15.6zM72.543 540.338h15.6v-19.102h-15.6z"/>
        <path fill="#AA836D" d="M156.983 464.446c3.114-.553 5.524-4.314 5.524-8.87H149.87c0 4.556 2.41 8.317 5.525 8.87v8.768h-2.676v2.245h6.94v-2.245h-2.676v-8.768zm-32.414 11.013h9.526v-2.245h-9.526v2.245zm3.373-3.37v-13.073h.993l-1.985-4.564-1.984 4.564h.992v13.073h1.984zm4.764 0v-13.073h.992l-1.984-4.564-1.985 4.564h.993v13.073h1.984zm10.304-16.443c3.114.553 5.524 4.314 5.524 8.87h-5.524v7.265c0 .396.113.754.296 1.013.183.259.436.42.716.42.28 0 .532-.161.715-.42.184-.26.297-.617.297-1.013h1.588c0 1.015-.291 1.935-.762 2.6-.47.667-1.12 1.078-1.838 1.078-.719 0-1.369-.411-1.839-1.077-.47-.666-.762-1.586-.762-2.6v-7.266h-5.524c0-4.556 2.41-8.317 5.524-8.87v-1.194h1.589v1.194z"/>
        <path fill="#DDA272" d="M167.611 395.547h65.145V286.43h-65.145z"/>
        <path fill="#FFD4A8" d="M232.756 395.547h59.705V286.43h-59.705z"/>
        <path fill="#C99873" d="M255.396 309.713h14.425V286.43h-14.425zM255.396 395.547h14.425v-23.283h-14.425z"/>
        <path fill="#966853" d="M212.946 306.814c3.553-.63 6.3-4.92 6.3-10.117h-14.411c0 5.197 2.748 9.487 6.3 10.117v10h-3.052v2.562h7.915v-2.563h-3.052v-10zm-36.968 12.562h10.865v-2.563h-10.865v2.563zm3.848-3.845v-14.91h1.131l-2.263-5.206-2.264 5.205h1.132v14.911h2.264zm5.432 0v-14.91h1.132l-2.264-5.206-2.264 5.205h1.132v14.911h2.264zm11.752-18.753c3.552.629 6.3 4.918 6.3 10.116h-6.3v8.285c0 .451.129.86.338 1.156.209.294.498.478.816.478.319 0 .608-.184.817-.478.208-.296.338-.705.338-1.156h1.81c0 1.16-.332 2.209-.868 2.967-.537.76-1.279 1.23-2.097 1.23-.819 0-1.56-.47-2.097-1.23-.536-.758-.869-1.807-.869-2.967v-8.285h-6.3c0-5.198 2.748-9.487 6.3-10.116v-1.363h1.812v1.363z"/>
    </g>
</svg>
