<svg xmlns="http://www.w3.org/2000/svg" width="241" height="37" viewBox="0 0 241 37">
    <g fill="none" fill-rule="nonzero">
        <path fill="#081F2C" d="M48.184 24.976l-.984 2.112H43v-.624l7.56-16.392h1.848l7.584 16.392v.624h-4.2l-.984-2.112h-6.624zm1.392-3.672h3.84l-1.944-4.416-1.896 4.416zM62.2 27.088v-16.8h7.392c8.04.024 8.04 12.504 0 12.504h-3.096v4.296H62.2zm7.368-8.16c2.352 0 2.496-4.776 0-4.8-1.008-.024-2.088 0-3.072 0v4.8h3.072zm9.288 8.16v-16.8h7.392c8.04.024 8.04 12.504 0 12.504h-3.096v4.296h-4.296zm7.368-8.16c2.352 0 2.496-4.776 0-4.8-1.008-.024-2.088 0-3.072 0v4.8h3.072zm12.88-.24c.024-5.712 4.344-8.592 8.616-8.592 3.48 0 7.248 1.896 7.896 6.384h-4.224c-.6-1.704-1.872-2.472-3.672-2.472-2.52 0-4.176 1.896-4.176 4.68 0 2.472 1.632 4.632 4.176 4.656 1.824 0 3.288-.912 3.744-2.712h4.224c-.624 4.752-4.392 6.624-7.968 6.624-4.272.024-8.592-2.856-8.616-8.568zm36.072.024c0 11.64-17.232 11.64-17.232 0 0-11.616 17.232-11.616 17.232 0zm-12.816 0c0 6.096 8.424 6.096 8.424 0 0-6.048-8.424-6.048-8.424 0zm25.656 8.376v-6.744h-5.184v6.744h-4.392v-16.8h4.392v6.096h5.184v-6.096h4.392v16.8h-4.392zm19.176-12.96h-6.216v2.376h5.712v3.816h-5.712v2.952h6.432v3.816h-10.704v-16.8h10.488v3.84zm6.888 7.824c0 2.136 5.256 2.088 5.256.12 0-1.176-1.392-1.368-3.072-1.464-3.648-.264-6.048-1.512-6.096-5.16-.144-7.248 12.912-7.248 12.816 0h-4.08c0-2.232-4.512-2.04-4.656-.048-.096 1.272 1.152 1.536 2.664 1.704 3.336.36 6.6.792 6.6 4.992 0 7.056-13.68 7.248-13.584-.144h4.152zm19.704 5.136h-8.52V23.32h2.136v-9.288h-1.968v-3.744h8.184v3.744h-1.968v9.288h2.136v3.768zm19.008-8.376c0 11.64-17.232 11.64-17.232 0 0-11.616 17.232-11.616 17.232 0zm-12.816 0c0 6.096 8.424 6.096 8.424 0 0-6.048-8.424-6.048-8.424 0zm20.496 8.376h-4.44V10.216h1.56l8.496 8.304v-8.232h4.392v16.824h-1.536l-8.472-8.28v8.256z"/>
        <g fill="#000">
            <path d="M236.04 10.71h-1.14v3.22h-.76v-3.22H233v-.68h3zM239.46 11.91l.08-.77-.24.62-.83 1.45h-.24l-.95-1.46-.24-.62.11.77v2h-.72V10h.7l1 1.78.18.45.17-.46 1-1.77h.69v3.9h-.76z"/>
        </g>
        <g fill="#081F2C">
            <path d="M40 37l-2.353-4.81H7.733L21.35 4.81h2.636L21.634 0h-3.247l-2.393 4.809h.017L2.143 32.695 0 36.999h.002V37h5.34z"/>
            <path d="M26.023 30L28 26.477 24.987 21 20 30z"/>
            <path d="M11 30h5.381L23.5 15.542 30.619 30H36L24.676 7H22.324z"/>
        </g>
    </g>
</svg>
