<svg xmlns="http://www.w3.org/2000/svg" width="17" height="11" viewBox="0 0 17 11">
    <g fill="#EC0089" fill-rule="nonzero">
        <path d="M2.441 10.199h11.596c.413 0 .8-.114 1.127-.307l-5.09-4.026-.01.01c-.488.372-1.139.578-1.826.578-.688 0-1.336-.206-1.826-.578l-.01-.01-5.09 4.026c.329.193.713.307 1.13.307M1.61.649l.01.008 5.2 4.34c.376.285.88.442 1.418.442.54 0 1.042-.157 1.418-.442L14.865.65c.155-.12.256-.222.323-.305a2.226 2.226 0 0 0-1.155-.32H2.44c-.425 0-.82.119-1.152.32.066.082.168.186.323.305M15.417 1.296l-4.724 3.945 5.097 4.032c.31-.34.5-.776.5-1.254V2.173c0-.468-.182-.899-.483-1.236a2.527 2.527 0 0 1-.39.36M5.637 5.242L.911 1.298a2.586 2.586 0 0 1-.387-.36C.223 1.274.04 1.707.04 2.175V8.02c0 .476.189.914.5 1.254l5.096-4.033z"/>
    </g>
</svg>
