<svg xmlns="http://www.w3.org/2000/svg" width="112" height="143" viewBox="0 0 112 143">
    <g fill="none" fill-rule="evenodd">
        <path fill="#FFF" stroke="#979797" d="M17 .5C7.887.5.5 7.887.5 17v109c0 9.113 7.387 16.5 16.5 16.5h78c9.113 0 16.5-7.387 16.5-16.5V17C111.5 7.887 104.113.5 95 .5H17z"/>
        <text fill="#050303" font-family="Rubik-Bold, Rubik" font-size="15" font-weight="bold" transform="translate(21 17)">
            <tspan x="2.283" y="104">ENGLISH</tspan>
        </text>
        <g fill-rule="nonzero">
            <path fill="#FFF" d="M56.06 87c8.03 0 15.422-2.7 21.326-7.229H34.735A34.92 34.92 0 0 0 56.06 87zM27.841 72.783H84.28a34.925 34.925 0 0 0 3.95-6.867H23.892a34.947 34.947 0 0 0 3.95 6.867zM60.277 17.24A38.573 38.573 0 0 0 56.06 17v.24h4.217zM21.678 58.928h68.644c.443-2.221.678-4.517.678-6.868H21c0 2.351.236 4.647.678 6.868zM56.06 45.072h34.338a34.629 34.629 0 0 0-2.162-6.867H56.06v6.867zM56.06 31.096h28.073a35.205 35.205 0 0 0-6.756-6.867H56.06v6.867z"/>
            <path fill="#E60012" d="M56.06 17.241v6.988h21.326a34.818 34.818 0 0 0-17.09-6.988H56.06zM56.06 38.084H88.23a34.906 34.906 0 0 0-4.044-6.988H56.06v6.988zM56 51.758H21.008c-.001.101-.008.201-.008.302h70c0-2.393-.242-4.73-.702-6.988H56v6.686zM23.907 65.916h64.307a34.683 34.683 0 0 0 2.184-6.988H21.723a34.63 34.63 0 0 0 2.184 6.988zM34.724 79.771h42.673a35.16 35.16 0 0 0 6.856-6.988H27.867a35.16 35.16 0 0 0 6.857 6.988z"/>
            <path fill="#1D2088" d="M51.24 17.361c-.08.01-.16.016-.24.025h.23l.01-.025z"/>
            <path fill="#0B318F" d="M56.18 45.001V17c-1.255 0-2.494.068-3.715.197l.055.169 1.931.002-1.56 1.136.593 1.835-1.564-1.131-1.564 1.131.594-1.835-1.237-.9a34.84 34.84 0 0 0-7.564 2.319l.134.416-.405-.294a35.023 35.023 0 0 0-4.974 2.722h.746l-1.56 1.137.593 1.834-1.564-1.13-1.565 1.13.211-.65a34.952 34.952 0 0 0-2.094 1.892h.378l-1.331.97c-.07.073-.142.146-.211.22l.576 1.78-1.32-.953a34.932 34.932 0 0 0-7.006 12.4h.561l.6-1.835.6 1.834 1.932.002-1.561 1.136.594 1.834-1.565-1.13-1.564 1.13.594-1.834-.436-.317a34.912 34.912 0 0 0-1.392 9.482h35.06V45zm-2.696-5.44l-1.564-1.13-1.564 1.13.594-1.834-1.56-1.135 1.93-.003.6-1.833.6 1.833 1.931.003-1.56 1.135.593 1.834zM34.52 41.396l.6-1.835.6 1.835 1.931.002-1.56 1.136.594 1.834-1.565-1.131-1.565 1.131.595-1.834-1.561-1.136 1.931-.002zm5.23-3.669l-1.56-1.135 1.93-.003.6-1.833.6 1.833 1.932.003-1.561 1.135.593 1.834-1.563-1.13-1.565 1.13.594-1.834zm2.534-7.777l-1.563-1.13-1.565 1.13.594-1.834-1.56-1.136 1.93-.003.6-1.832.6 1.832 1.932.003-1.561 1.136.593 1.834zm5.601 14.418l-1.564-1.131-1.565 1.131.595-1.834-1.562-1.136 1.932-.002.6-1.835.6 1.835 1.93.002-1.56 1.136.594 1.834zm-.964-12.585l1.93.003-1.56 1.137.594 1.833-1.564-1.13-1.565 1.13.594-1.833-1.56-1.137 1.93-.003.6-1.833.6 1.833zm6.564-1.833l-1.564-1.13-1.564 1.13.594-1.834-1.56-1.136 1.93-.003.6-1.832.6 1.832 1.931.003-1.56 1.136.593 1.834zm-9.696-7.182l1.932-.004.6-1.832.6 1.832 1.93.004-1.56 1.136.594 1.834-1.564-1.13-1.565 1.13.595-1.834-1.562-1.136zm-8.67 7.182l.6 1.833 1.932.003-1.56 1.137.594 1.833-1.565-1.13-1.565 1.13.595-1.833-1.561-1.137 1.931-.003.6-1.833zm-8.13 6.642l1.931-.003.6-1.833.6 1.833 1.93.003-1.56 1.135.594 1.834-1.564-1.13-1.565 1.13.594-1.834-1.56-1.135zm4.095 12.582l-1.564-1.13-1.565 1.13.594-1.834-1.56-1.136 1.931-.003.6-1.833.6 1.833 1.93.003-1.56 1.136.594 1.834zm11.2 0l-1.563-1.13-1.565 1.13.594-1.834-1.56-1.136 1.93-.003.6-1.833.6 1.833 1.932.003-1.561 1.136.593 1.834zm11.201 0l-1.564-1.13-1.564 1.13.594-1.834-1.56-1.136 1.93-.003.6-1.833.6 1.833 1.931.003-1.56 1.136.593 1.834z"/>
            <path fill="#FFF" d="M50.312 20.373l1.552-1.127 1.55 1.127-.588-1.83 1.547-1.131-1.915-.003-.054-.168c-.378.04-.753.093-1.127.144l-.008.024h-.184c-.474.069-.942.15-1.41.238l1.226.897-.589 1.83zM42.084 19.892l-.24.105.359.254-.119-.36zM52.443 27.03l-.6-1.837-.6 1.837-1.93.003 1.56 1.14-.594 1.839 1.565-1.134 1.563 1.134-.593-1.84 1.56-1.139zM31.587 27a34.57 34.57 0 0 0-.948.964L31.964 27h-.377zM30.422 28.205c-.254.275-.502.556-.747.839l1.325.968-.578-1.807zM41.238 27.03l-.599-1.837-.6 1.837-1.93.003 1.56 1.14-.594 1.839 1.564-1.134 1.563 1.134-.593-1.84 1.56-1.139zM54.373 36.673l-1.93-.004-.6-1.838-.6 1.838-1.93.004 1.56 1.138-.594 1.84 1.565-1.133 1.563 1.133-.593-1.84zM27.87 39.65l1.564-1.132 1.564 1.133-.594-1.84 1.56-1.138-1.93-.004-.6-1.838-.6 1.838-1.93.004 1.56 1.138zM42.202 39.65l-.593-1.84 1.56-1.137-1.931-.004-.599-1.838-.6 1.838-1.93.004 1.56 1.138-.594 1.84 1.564-1.133zM52.443 46.187l-.6-1.838-.6 1.838-1.93.003 1.56 1.14-.594 1.839 1.565-1.134 1.563 1.134-.593-1.84 1.56-1.139zM30.034 46.187l-.6-1.838-.6 1.838-1.93.003 1.56 1.14-.594 1.839 1.564-1.134 1.564 1.134-.594-1.84 1.56-1.139zM41.238 46.187l-.599-1.838-.6 1.838-1.93.003 1.56 1.14-.594 1.839 1.564-1.134 1.563 1.134-.593-1.84 1.56-1.139zM32.566 31.853l1.56 1.14-.594 1.838 1.564-1.134 1.564 1.134-.594-1.838 1.56-1.14-1.93-.003-.6-1.838-.6 1.838zM45.581 31.85l-1.93.003 1.56 1.14-.594 1.838 1.564-1.134 1.564 1.134-.594-1.838 1.56-1.14-1.93-.003-.6-1.838zM33.532 44.35l1.564-1.135 1.564 1.134-.594-1.838 1.56-1.14-1.93-.001-.6-1.84-.6 1.84-1.93.002 1.56 1.139zM22.325 44.35l1.565-1.135 1.565 1.134-.594-1.838 1.56-1.14-1.931-.001-.6-1.84-.6 1.84h-.562c-.087.272-.164.548-.245.822l.437.319-.595 1.838zM46.78 41.37l-.599-1.84-.6 1.84-1.93.002 1.56 1.139-.594 1.838 1.564-1.134 1.564 1.134-.594-1.838 1.56-1.14zM35.095 24.649l1.565 1.146-.594-1.86 1.56-1.15-.745-.002c-1.09.727-2.14 1.51-3.14 2.353l-.21.66 1.564-1.147zM44.617 25.795l1.564-1.134 1.564 1.134-.594-1.84 1.56-1.138-1.93-.003-.6-1.838-.6 1.838-1.93.003 1.56 1.139z"/>
        </g>
    </g>
</svg>
