<svg xmlns="http://www.w3.org/2000/svg" width="200" height="39" viewBox="0 0 200 39">
    <g fill="none" fill-rule="nonzero">
        <path fill="#000" d="M60.119 37.973V20.125c0-1.984-.362-3.79-1.075-5.37a11.505 11.505 0 0 0-3.022-4.041c-1.284-1.095-2.83-1.943-4.599-2.517-1.755-.57-3.688-.858-5.746-.858-2.06 0-3.982.29-5.719.858-1.75.577-3.287 1.422-4.57 2.517a11.791 11.791 0 0 0-3.047 4.036c-.733 1.578-1.106 3.388-1.106 5.374v17.948h.011c.079.46 1.749.825 3.802.825 2.054 0 3.724-.368 3.802-.825h.006v-.025l.001-.01-.001-.01v-16.24c0-2.437.57-4.304 1.697-5.543 1.113-1.228 2.837-1.85 5.123-1.85 2.248 0 3.963.622 5.096 1.852 1.143 1.241 1.723 3.105 1.723 5.542v16.284h.026c.08.46 1.749.825 3.802.825 2.105 0 3.812-.383 3.812-.857a.226.226 0 0 0-.016-.067M92.18 20.125c0-1.984-.362-3.79-1.073-5.368a11.496 11.496 0 0 0-3.022-4.042c-1.285-1.095-2.83-1.941-4.6-2.515-1.754-.571-3.688-.858-5.746-.858-2.057 0-3.981.288-5.72.858-1.75.574-3.285 1.422-4.568 2.515a11.8 11.8 0 0 0-3.048 4.038c-.732 1.578-1.107 3.388-1.107 5.372v17.95h.017c.079.457 1.748.825 3.8.825 2.056 0 3.725-.368 3.804-.825v-.005c.001-.01.007-.019.007-.03 0-.01-.004-.02-.007-.029V21.79c0-2.439.572-4.304 1.697-5.545 1.115-1.227 2.838-1.847 5.123-1.847 2.25 0 3.963.621 5.096 1.85 1.142 1.243 1.723 3.106 1.723 5.542v16.24c0 .003-.004.008-.004.012s.004.008.004.012v.023h.007c.079.456 1.749.824 3.802.824 2.054 0 3.724-.368 3.802-.824h.011l.002-17.952zM27.587 16.312c-.825-1.921-1.971-3.569-3.408-4.898A14.403 14.403 0 0 0 19.15 8.4c-1.89-.667-3.952-1.007-6.128-1.007-1.54 0-2.98.118-4.279.354a28.524 28.524 0 0 0-3.424.819c-.993.314-1.838.657-2.512 1.016-.667.354-1.143.626-1.457.824l-.449.281.007.017c-.388.266-.095 1.656.676 3.163.787 1.538 1.772 2.603 2.197 2.38.003 0 .005-.007.008-.01l.004.01.502-.253c.225-.114.574-.286 1.042-.513a15.964 15.964 0 0 1 1.644-.661 14.669 14.669 0 0 1 4.79-.772c2.777 0 4.927.568 6.39 1.687 1.271.973 2.078 2.175 2.454 3.662C10.966 17.336 0 20.313 0 28.836c0 1.376.286 2.696.85 3.914.566 1.22 1.41 2.3 2.514 3.214 1.091.9 2.443 1.625 4.016 2.164 1.568.534 3.39.804 5.413.804 8.869 0 16.032-2.914 16.032-15.997.003-2.478-.415-4.705-1.238-6.623M12.909 32.735c-1.587 0-2.93-.337-3.99-1.003-.985-.618-1.465-1.53-1.465-2.779 0-3.051 4.057-5.8 13.546-3.92 0 7.1-4.807 7.702-8.091 7.702M147.866 30.012c.826 1.92 1.973 3.568 3.407 4.897a14.376 14.376 0 0 0 5.032 3.014c1.89.669 3.95 1.01 6.129 1.01 1.54 0 2.979-.12 4.278-.354 1.294-.232 2.445-.508 3.424-.819.993-.316 1.837-.656 2.512-1.015a26.225 26.225 0 0 0 1.457-.825l.449-.282-.007-.016c.385-.264.094-1.657-.675-3.163-.788-1.538-1.77-2.603-2.198-2.382-.005.003-.005.009-.008.01l-.008-.008-.499.253c-.225.114-.573.284-1.044.513-.451.216-1.005.439-1.642.663a14.8 14.8 0 0 1-2.163.551c-.798.144-1.678.22-2.624.22-2.778 0-4.927-.568-6.391-1.692-1.272-.97-2.079-2.174-2.454-3.662 9.648 2.06 20.615-.916 20.615-9.438a9.252 9.252 0 0 0-.85-3.91c-.565-1.222-1.41-2.303-2.513-3.216-1.091-.9-2.442-1.625-4.016-2.163-1.57-.535-3.39-.805-5.413-.805-8.867 0-16.03 2.913-16.03 15.997-.01 2.477.41 4.707 1.232 6.622m14.68-16.423c1.585 0 2.929.337 3.99 1.004.987.62 1.466 1.53 1.466 2.78 0 3.052-4.057 5.8-13.548 3.92-.001-7.103 4.807-7.704 8.092-7.704M122.153 16.312c-.823-1.921-1.97-3.569-3.406-4.898a14.403 14.403 0 0 0-5.03-3.015c-1.89-.667-3.952-1.007-6.129-1.007-1.541 0-2.979.118-4.28.354-1.294.232-2.444.51-3.423.819-.992.314-1.837.657-2.51 1.015-.667.354-1.143.625-1.458.823l-.45.282.01.016c-.389.266-.096 1.656.673 3.163.787 1.538 1.77 2.604 2.199 2.38.003 0 .005-.006.008-.009l.003.01.501-.254c.227-.114.575-.285 1.044-.512a16.057 16.057 0 0 1 1.642-.662 14.755 14.755 0 0 1 4.79-.772c2.776 0 4.925.569 6.39 1.687 1.27.974 2.077 2.176 2.453 3.662-9.647-2.06-20.614.917-20.614 9.44 0 1.376.285 2.695.848 3.913.566 1.22 1.412 2.3 2.515 3.214 1.091.9 2.443 1.625 4.016 2.164 1.569.534 3.39.804 5.412.804 8.87 0 16.033-2.914 16.033-15.997.006-2.475-.413-4.702-1.237-6.62m-14.677 16.423c-1.588 0-2.93-.337-3.991-1.003-.986-.618-1.467-1.53-1.467-2.779 0-3.051 4.058-5.8 13.547-3.92 0 7.1-4.806 7.702-8.089 7.702M145.557 32.422c-.867-1.463-1.897-2.45-2.32-2.232l-.003-.005-.01.008h-.003l-.005.004-.484.355c-.373.272-1.011.574-1.905.899a8.395 8.395 0 0 1-2.875.484c-.637 0-1.25-.07-1.827-.214a3.58 3.58 0 0 1-1.427-.692c-.395-.32-.713-.754-.939-1.294-.233-.556-.352-1.301-.352-2.212v-12.21h10.697l.156-.319c.125-.252.284-.66.487-1.245a6.214 6.214 0 0 0 .316-1.995c0-1.147-.315-2.046-.935-2.671-.63-.634-1.627-.945-3.048-.945h-7.673V.812l-.362-.143c-.21-.084-.619-.215-1.214-.39A7.382 7.382 0 0 0 129.769 0c-1.186 0-2.149.28-2.852.839-.748.59-1.128 1.525-1.128 2.774V28.84c0 2.974.917 5.414 2.725 7.255 1.809 1.845 4.488 2.78 7.967 2.78 1.204 0 2.331-.108 3.36-.325a18.668 18.668 0 0 0 2.757-.8 12.536 12.536 0 0 0 2.115-1.024 18.832 18.832 0 0 0 1.32-.887l.414-.315-.009-.014c.343-.307-.031-1.656-.88-3.087"/>
        <path fill="#D7006D" d="M188.84 33.572c0-2.999 2.412-5.43 5.386-5.43 2.972 0 5.381 2.431 5.381 5.43 0 2.999-2.408 5.428-5.381 5.428-2.975.003-5.387-2.43-5.387-5.428"/>
        <path fill="#000" d="M185.33.822l-.359-.145a16.215 16.215 0 0 0-1.183-.39 7.016 7.016 0 0 0-2.04-.283c-1.228 0-2.21.294-2.917.873-.743.61-1.121 1.534-1.121 2.742l.002 34.428c0 .006-.002.009-.002.011l.002.014v.021h.006c.08.458 1.75.825 3.802.825 2.053 0 3.723-.367 3.802-.825h.011L185.33.822z"/>
    </g>
</svg>
