<svg xmlns="http://www.w3.org/2000/svg" width="16" height="19" viewBox="0 0 16 19">
    <g fill="#EC0089" fill-rule="nonzero">
        <path d="M10.686 19c-.027 0-.054 0-.083-.002-1.397-.058-2.97-1.03-4.673-2.893-1.496-1.634-2.645-3.453-3.068-4.158v-.002c-.42-.708-1.469-2.576-2.184-4.65-.81-2.361-.894-4.168-.252-5.367C.821 1.194 1.796.622 2.214.377 2.79.037 3.29-.071 3.75.045c.416.105.766.392 1.033.849.159.273 1.556 2.687 1.66 3.833.122 1.333-.708 1.597-1.205 1.754-.333.107-.428.154-.464.274-.163.553.541 2.173 1.327 3.485.87 1.465 1.841 2.573 2.36 2.698.125.03.214-.028.476-.253.39-.337 1.04-.9 2.17-.135.973.664 2.433 3.042 2.598 3.31.278.455.36.89.242 1.292-.124.445-.476.812-1.064 1.127-.416.219-1.364.721-2.198.721M11.423 11a.432.432 0 0 1-.418-.54 3.719 3.719 0 0 0-.381-2.859 3.754 3.754 0 0 0-2.302-1.757.43.43 0 0 1-.307-.525.435.435 0 0 1 .528-.305 4.63 4.63 0 0 1 2.832 2.158 4.572 4.572 0 0 1 .464 3.51.428.428 0 0 1-.416.318"/>
        <path d="M13.378 11a.44.44 0 0 1-.111-.015.451.451 0 0 1-.304-.55c.732-2.849-.899-5.789-3.642-6.552a.456.456 0 0 1-.308-.549.43.43 0 0 1 .531-.318c3.2.892 5.108 4.325 4.25 7.65a.44.44 0 0 1-.416.334"/>
        <path d="M15.333 11a.417.417 0 0 1-.11-.016c-.229-.065-.365-.317-.306-.563.927-3.703-1.134-7.523-4.6-8.514-.229-.067-.363-.32-.302-.564.059-.246.296-.394.525-.327 3.925 1.123 6.259 5.45 5.208 9.643a.435.435 0 0 1-.415.341"/>
    </g>
</svg>
