<svg xmlns="http://www.w3.org/2000/svg" width="14" height="14" viewBox="0 0 14 14">
    <g fill="none" fill-rule="evenodd">
        <path fill="#FFF" fill-rule="nonzero" d="M11.96 2.036A6.942 6.942 0 0 0 7.028 0C3.188 0 .06 3.112.058 6.939a6.887 6.887 0 0 0 .929 3.466L0 14l3.693-.963a7.025 7.025 0 0 0 3.333.844c3.845 0 6.973-3.112 6.974-6.937a6.874 6.874 0 0 0-2.04-4.908V3"/>
        <path fill="#E6007C" d="M10.208 8.39c-.175-.086-1.03-.507-1.19-.564-.159-.059-.275-.088-.392.085a9.277 9.277 0 0 1-.551.68c-.102.117-.203.132-.378.044-.173-.086-.735-.27-1.4-.86a5.237 5.237 0 0 1-.97-1.201c-.101-.173-.01-.267.077-.354.08-.079.175-.202.261-.303.088-.101.117-.173.174-.29.058-.116.03-.216-.015-.303-.042-.087-.39-.94-.536-1.287-.14-.338-.285-.293-.392-.298-.1-.005-.217-.005-.334-.005a.64.64 0 0 0-.464.217c-.16.172-.61.592-.61 1.444 0 .854.625 1.677.711 1.793.086.115 1.23 1.867 2.977 2.617.413.18.739.286.99.366.418.132.8.112 1.097.068.335-.05 1.03-.417 1.178-.824.143-.405.143-.753.1-.824-.042-.072-.159-.114-.333-.202"/>
    </g>
</svg>
