<svg xmlns="http://www.w3.org/2000/svg" id="prefix__Group_12" width="154.064" height="64" data-name="Group 12" viewBox="0 0 154.064 64">
    <defs>
        <style>
            .prefix__cls-1{fill:#ee5e1e}
        </style>
    </defs>
    <g id="prefix__Orignal">
        <path id="prefix__Path_5" d="M34.819 6.554l-3.226-9.106H14.264l-3.225 9.106H.54l16.886-44.84H29l16.7 44.84zM23.052-27.155l-5.5 15.495h10.879z" data-name="Path 5" transform="translate(-.54 38.286)"/>
        <path id="prefix__Path_7" d="M75.314 30.349H65.7v-51.38H75v3.226a8.347 8.347 0 0 1 3.573-2.814 13.188 13.188 0 0 1 5.66-1.17A13.355 13.355 0 0 1 94.889-17.2q3.954 4.585 3.952 11.8a17 17 0 0 1-4.206 11.849A13.888 13.888 0 0 1 83.852 11.1q-5.945 0-8.538-3.162zM87.362.438a7.825 7.825 0 0 0 2.056-5.787 7.708 7.708 0 0 0-2.056-5.751 6.971 6.971 0 0 0-5.091-2.023 6.894 6.894 0 0 0-5.028 2.023 7.717 7.717 0 0 0-2.055 5.755A7.818 7.818 0 0 0 77.243.438a6.839 6.839 0 0 0 5.028 2.056A6.915 6.915 0 0 0 87.362.438z" data-name="Path 7" transform="translate(-15.738 33.648)"/>
        <path id="prefix__Path_9" d="M75.314 30.3H65.7v-51.331H75v3.226a8.347 8.347 0 0 1 3.573-2.814 13.188 13.188 0 0 1 5.66-1.17A13.355 13.355 0 0 1 94.889-17.2q3.954 4.585 3.952 11.8a17 17 0 0 1-4.206 11.849A13.888 13.888 0 0 1 83.852 11.1q-5.945 0-8.538-3.162zM87.362.438a7.825 7.825 0 0 0 2.056-5.787 7.708 7.708 0 0 0-2.056-5.751 6.971 6.971 0 0 0-5.091-2.023 6.894 6.894 0 0 0-5.028 2.023 7.717 7.717 0 0 0-2.055 5.755A7.818 7.818 0 0 0 77.243.438a6.839 6.839 0 0 0 5.028 2.056A6.915 6.915 0 0 0 87.362.438z" data-name="Path 9" transform="translate(23.367 33.648)"/>
        <g id="prefix__Group_1" data-name="Group 1" transform="translate(125.188 13.085)">
            <path id="prefix__Path_1" d="M193.508 185.361h6.957a2.772 2.772 0 0 1 2.342 1.289l9.209 14.546h-10.48l-8.865-14.329a.986.986 0 0 1 .838-1.505z" data-name="Path 1" transform="translate(-192.522 -185.361)"/>
            <path id="prefix__Path_2" d="M193.508 328.164h6.957a2.772 2.772 0 0 0 2.342-1.289l9.209-14.546h-10.48l-8.865 14.329a.986.986 0 0 0 .838 1.505z" class="prefix__cls-1" data-name="Path 2" transform="translate(-192.522 -296.496)"/>
            <g id="prefix__Group_4" data-name="Group 4" transform="translate(15.617)">
                <g id="prefix__Group_3" data-name="Group 3">
                    <g id="prefix__Group_1-2" data-name="Group 1" transform="translate(.001)">
                        <path id="prefix__Path_3" d="M322.99 199.39l7.748-12.524a.986.986 0 0 0-.839-1.505h-6.957a2.772 2.772 0 0 0-2.342 1.289l-2.837 4.483z" class="prefix__cls-1" data-name="Path 3" transform="translate(-317.764 -185.361)"/>
                    </g>
                    <g id="prefix__Group_2" data-name="Group 2" transform="translate(0 17.64)">
                        <path id="prefix__Path_4" d="M322.99 326.809l-5.227 8.257 2.837 4.483a2.772 2.772 0 0 0 2.342 1.289h6.958a.986.986 0 0 0 .839-1.505z" data-name="Path 4" transform="translate(-317.763 -326.809)"/>
                    </g>
                </g>
            </g>
        </g>
    </g>
    <g id="prefix__Group_13" data-name="Group 13" transform="translate(107.681 51.072)">
        <path id="prefix__Path_6" d="M12.154-.842H9.321v-5.02H4.279v5.02H1.463v-12.629h2.816v4.953h5.042v-4.953h2.833z" class="prefix__cls-1" data-name="Path 6" transform="translate(-1.463 13.478)"/>
        <path id="prefix__Path_10" d="M30.3-1.827a5.166 5.166 0 0 1-3.59 1.274 5.166 5.166 0 0 1-3.591-1.274A4.558 4.558 0 0 1 21.7-5.4v-8.072h2.816v7.84a2.339 2.339 0 0 0 .579 1.711 2.161 2.161 0 0 0 1.61.588 2.161 2.161 0 0 0 1.61-.588 2.339 2.339 0 0 0 .579-1.711v-7.84h2.816V-5.4a4.558 4.558 0 0 1-1.41 3.573z" class="prefix__cls-1" data-name="Path 10" transform="translate(-2.514 13.478)"/>
        <path id="prefix__Path_11" d="M41.083-13.473H45.8a4.163 4.163 0 0 1 2.887.945 3.13 3.13 0 0 1 1.051 2.441 2.874 2.874 0 0 1-.526 1.693A2.607 2.607 0 0 1 47.89-7.38a2.868 2.868 0 0 1 1.586 1.007 2.95 2.95 0 0 1 .659 1.951 3.341 3.341 0 0 1-1.1 2.575 4.064 4.064 0 0 1-2.86 1h-5.1zm2.744 5.061h1.534a1.789 1.789 0 0 0 1.185-.365 1.242 1.242 0 0 0 .436-1.007 1.233 1.233 0 0 0-.428-.989 1.84 1.84 0 0 0-1.227-.365h-1.5zm0 5.274h1.764a1.9 1.9 0 0 0 1.283-.4 1.353 1.353 0 0 0 .46-1.078 1.359 1.359 0 0 0-.46-1.069 1.869 1.869 0 0 0-1.283-.415h-1.764z" class="prefix__cls-1" data-name="Path 11" transform="translate(-3.753 13.48)"/>
    </g>
</svg>
