<svg xmlns="http://www.w3.org/2000/svg" width="72" height="72" viewBox="0 0 72 72">
    <defs>
        <clipPath id="prefix__clip-path">
            <path id="prefix__Rectangle_452" d="M0 0H72V72H0z" data-name="Rectangle 452" transform="translate(92 3545)" style="fill:#737373"/>
        </clipPath>
        <style>
            .prefix__cls-3{fill:#2bbdc4}
        </style>
    </defs>
    <g id="prefix__Mask_Group_91" data-name="Mask Group 91" transform="translate(-92 -3545)">
        <g id="prefix__promotion" transform="translate(92 3546.934)">
            <path id="prefix__Path_9781" d="M16.376 29.572l7.7 13.146-11.115 6.326a7.764 7.764 0 0 1-10.522-2.778A7.529 7.529 0 0 1 5.258 35.9zm0 0" class="prefix__cls-3" data-name="Path 9781" transform="translate(2.163 2.287)"/>
            <path id="prefix__Path_9782" d="M57.58 34.287a2.812 2.812 0 0 1-2.367 4.213l-1.582.311-.035-.179L37.047 9.331l-.118-.093 1.012-1.29a2.812 2.812 0 0 1 4.836.058c28.1 48.661-8.9-14.781 14.8 26.281zm0 0" class="prefix__cls-3" data-name="Path 9782"/>
            <path id="prefix__Path_9783" d="M29.1 60.4a4.219 4.219 0 0 1-7.3 4.216L14.49 53.7l7.31-4.223c.067.116 7.3 10.9 7.307 10.919zm0 0" data-name="Path 9783" style="fill:#495d85"/>
            <path id="prefix__Path_9784" d="M53.125 15.319l2.813 4.871-3.465 5.248-5.626-9.738zm0 0" data-name="Path 9784" style="fill:#e9eef0"/>
            <path id="prefix__Path_9785" d="M51.438 36.084l.033.164-25.738 4.936L17.8 27.756 34.315 7.188l.111.085zm0 0" data-name="Path 9785" transform="translate(2.16 3.002)" style="fill:#adf3ff"/>
            <path id="prefix__Path_9786" d="M19.261 43.345a1.406 1.406 0 1 0-1.921-.515 1.407 1.407 0 0 0 1.921.515zm0 0" data-name="Path 9786"/>
            <path id="prefix__Path_9787" d="M13.5 53.051l7.08 12.267a5.625 5.625 0 1 0 9.743-5.624L26.1 52.386l3.654-2.109a1.407 1.407 0 0 0 .515-1.921l-1.829-3.167L55.378 39.9a4.218 4.218 0 0 0 3.422-6.316l-4.674-8.095 2.987-4.524a1.407 1.407 0 0 0 .044-1.478l-2.812-4.871a1.409 1.409 0 0 0-1.3-.7l-5.41.325-5.193-8.988a4.182 4.182 0 0 0-3.6-2.109h-.054a4.182 4.182 0 0 0-3.552 1.945l-18.37 23.4-11.943 6.9A9.844 9.844 0 0 0 13.5 53.051zM27.887 61.1a2.813 2.813 0 0 1-4.872 2.812l-7.031-12.18 4.871-2.812 7.032 12.18zM24.7 49.949l-1.406-2.436 2.436-1.406 1.406 2.436zm27.642-33.174l1.943 3.366-1.733 2.625-3.35-5.8zM37.587 6.631a1.406 1.406 0 0 1 2.418.028L56.362 34.99a1.406 1.406 0 0 1-1.183 2.11 5.163 5.163 0 0 0-.771.131L37.106 7.261c.363-.467.41-.512.482-.63zm-2.353 3.014L51.49 37.8l-24.533 4.813-7.457-12.92zM3.755 47.426a7.027 7.027 0 0 1 2.574-9.6l10.961-6.328 7.03 12.174L13.36 50a7.04 7.04 0 0 1-9.6-2.574zm0 0" data-name="Path 9787"/>
            <path id="prefix__Path_9788" d="M14.9 44.237a1.406 1.406 0 0 0-1.921-.515l-2.436 1.406a1.408 1.408 0 0 1-1.921-.515 1.406 1.406 0 0 0-2.431 1.407 4.224 4.224 0 0 0 5.763 1.544l2.436-1.406a1.406 1.406 0 0 0 .515-1.921zm0 0" data-name="Path 9788"/>
            <path id="prefix__Path_9789" d="M69.91 6.152l-7.836 4.36a1.406 1.406 0 0 0 1.368 2.458l7.835-4.36a1.406 1.406 0 0 0-1.367-2.458zm0 0" data-name="Path 9789"/>
            <path id="prefix__Path_9790" d="M69.088 20.716l-5.433-1.456a1.406 1.406 0 1 0-.728 2.716l5.434 1.456a1.406 1.406 0 1 0 .727-2.716zm0 0" data-name="Path 9790"/>
            <path id="prefix__Path_9791" d="M55.434 1.043l-1.457 5.433a1.406 1.406 0 0 0 2.717.728l1.457-5.434a1.406 1.406 0 1 0-2.716-.728zm0 0" data-name="Path 9791"/>
        </g>
    </g>
</svg>
