<svg xmlns="http://www.w3.org/2000/svg" width="72" height="72" viewBox="0 0 72 72">
    <defs>
        <clipPath id="prefix__clip-path">
            <path id="prefix__Rectangle_443" d="M0 0H72V72H0z" data-name="Rectangle 443" transform="translate(92 3545)" style="fill:#737373"/>
        </clipPath>
        <style>
            .prefix__cls-4{fill-rule:evenodd;fill:#b941d6}
        </style>
    </defs>
    <g id="prefix__Mask_Group_87" data-name="Mask Group 87" transform="translate(-92 -3545)">
        <g id="prefix__think" transform="translate(93.028 3545)">
            <g id="prefix__Group_6847" data-name="Group 6847">
                <path id="prefix__Path_9763" d="M26.636 30.036a10.626 10.626 0 0 0 5.084-8.92v-.152a10.637 10.637 0 0 0-7.433-10.144 10.636 10.636 0 0 0-2.349 19.216 3.729 3.729 0 0 1 2.029 3.22h.639a3.728 3.728 0 0 1 2.03-3.22zm0 0" data-name="Path 9763" style="fill-rule:evenodd;fill:#f4ab38"/>
                <path id="prefix__Path_9764" d="M21.089 33.256h3.518v4.869h-3.518zm0 0" class="prefix__cls-4" data-name="Path 9764"/>
                <path id="prefix__Path_9765" d="M24.607 41.552v-3.427h-3.518v3.427a1.446 1.446 0 0 0 1.441 1.441h.636a1.446 1.446 0 0 0 1.441-1.441zm0 0" class="prefix__cls-4" data-name="Path 9765"/>
                <path id="prefix__Path_9766" d="M50.33 64.029c3.81 0 6.458.311 8.455.294a1.436 1.436 0 0 1 1.178-.294q.607 0 1.176.01a5.13 5.13 0 0 0 2.854-2.221c1.516-2.184.2-7.024.694-10.479.141-1 3.781-2.509 3.781-3.592 0-1.656-3.666-7.223-3.061-8.678 3.863-9.3-6.083-18.818-16.306-21.145a23.67 23.67 0 0 0-7.746 3.191 10.625 10.625 0 0 1-5.084 8.92 3.73 3.73 0 0 0-2.03 3.221v8.3a1.446 1.446 0 0 1-1.441 1.437h-2.4a23.775 23.775 0 0 0 8.177 16.247c1.75 1.512-1.818 8.733-2.65 11.353h10.441c1.738 0 .964-7.035 3.962-6.564zm0 0" data-name="Path 9766" style="fill:#afce2e;fill-rule:evenodd"/>
            </g>
            <path id="prefix__Path_9767" d="M57.394 29.931a1.4 1.4 0 0 1-.961-.38l-.066-.064a1.408 1.408 0 1 1 1.027.444zm-2.687-2.173a1.394 1.394 0 0 1-.788-.243 19.516 19.516 0 0 0-2.141-1.264 16.1 16.1 0 0 0-12.2-1.189 1.406 1.406 0 0 1-.834-2.686 18.861 18.861 0 0 1 14.3 1.363 21.985 21.985 0 0 1 2.456 1.449 1.406 1.406 0 0 1-.791 2.57zm0 0" data-name="Path 9767"/>
            <path id="prefix__Path_9768" d="M46.368 72H26.294a1.407 1.407 0 0 1-1.34-1.832c.206-.648.547-1.506.941-2.5.589-1.484 1.257-3.165 1.692-4.679a5.544 5.544 0 0 0 .385-2.733A25.056 25.056 0 0 1 19.36 43.1a1.406 1.406 0 1 1 2.8-.208 22.261 22.261 0 0 0 7.7 15.287c1.953 1.689.67 5.429-1.356 10.53l-.191.48h17.6a14.9 14.9 0 0 0 .417-1.623 13.1 13.1 0 0 1 .948-3.081 3 3 0 0 1 3.139-1.86c2.138 0 3.942.1 5.4.184 4.406.244 5.616.225 7.016-1.791.647-.932.526-3.171.419-5.147a25.017 25.017 0 0 1 .037-4.729c.154-1.087 1.2-1.8 2.41-2.636a13.186 13.186 0 0 0 1.315-.981 25.377 25.377 0 0 0-1.261-2.925c-1.38-2.9-2.2-4.738-1.647-6.067a10.555 10.555 0 0 0-1.4-10.1c-3.668-5.5-11.487-9.639-18.188-9.639A22.341 22.341 0 0 0 32.477 22.3a1.406 1.406 0 1 1-1.514-2.37 25.144 25.144 0 0 1 13.559-3.95c7.682 0 16.315 4.58 20.527 10.89 2.739 4.1 3.339 8.589 1.695 12.642a18.083 18.083 0 0 0 1.549 3.875c.98 2.056 1.581 3.367 1.581 4.36 0 1.307-1.252 2.167-2.577 3.077a12.216 12.216 0 0 0-1.245.928 25.079 25.079 0 0 0 .015 3.966c.143 2.663.279 5.177-.918 6.9-2.354 3.39-5.037 3.242-9.482 2.995-1.516-.084-3.233-.18-5.336-.18a1.379 1.379 0 0 1-.218-.017.286.286 0 0 0-.078 0c-.39.215-.782 2-.949 2.755A13.774 13.774 0 0 1 48.5 70.3a2.283 2.283 0 0 1-2.132 1.7zm0 0" data-name="Path 9768"/>
            <path id="prefix__Path_9769" d="M24.607 34.662h-7.036a1.407 1.407 0 0 1-1.4-1.286 2.363 2.363 0 0 0-1.363-2.141 12.039 12.039 0 1 1 12.564 0 2.364 2.364 0 0 0-1.363 2.141 1.406 1.406 0 0 1-1.4 1.286zm-3.518-2.814h2.348a5.119 5.119 0 0 1 2.463-3.012 9.226 9.226 0 1 0-9.625 0 5.118 5.118 0 0 1 2.465 3.013zm0 0" data-name="Path 9769"/>
            <path id="prefix__Path_9770" d="M26.065 24.776a1.407 1.407 0 0 1-1.184-2.163 4.259 4.259 0 0 0 .39-2.905 2.82 2.82 0 0 0-1.559-1.8A1.406 1.406 0 1 1 25 15.411a5.628 5.628 0 0 1 2.986 3.565 7.052 7.052 0 0 1-.734 5.15 1.4 1.4 0 0 1-1.187.65zm0 0" data-name="Path 9770"/>
            <path id="prefix__Path_9771" d="M21.089 6.821a1.406 1.406 0 0 1-1.406-1.406V1.406a1.406 1.406 0 0 1 2.813 0v4.009a1.406 1.406 0 0 1-1.407 1.406zm0 0" data-name="Path 9771"/>
            <path id="prefix__Path_9772" d="M5.485 22.425H1.477a1.406 1.406 0 0 1 0-2.812h4.008a1.406 1.406 0 0 1 0 2.813zm0 0" data-name="Path 9772"/>
            <path id="prefix__Path_9773" d="M13.288 8.91a1.407 1.407 0 0 1-1.219-.7l-2-3.471A1.406 1.406 0 0 1 12.5 3.33l2 3.471a1.406 1.406 0 0 1-1.212 2.109zm0 0" data-name="Path 9773"/>
            <path id="prefix__Path_9774" d="M7.573 14.623a1.4 1.4 0 0 1-.7-.188l-3.471-2a1.406 1.406 0 0 1 1.405-2.44l3.471 2a1.406 1.406 0 0 1-.7 2.624zm0 0" data-name="Path 9774"/>
            <path id="prefix__Path_9775" d="M34.6 14.623A1.406 1.406 0 0 1 33.9 12l3.471-2a1.406 1.406 0 0 1 1.406 2.436l-3.471 2a1.4 1.4 0 0 1-.7.188zm0 0" data-name="Path 9775"/>
            <path id="prefix__Path_9776" d="M4.105 32.231a1.406 1.406 0 0 1-.7-2.624l3.472-2a1.406 1.406 0 0 1 1.406 2.436l-3.472 2a1.4 1.4 0 0 1-.7.188zm0 0" data-name="Path 9776"/>
            <path id="prefix__Path_9777" d="M11.281 39.411a1.407 1.407 0 0 1-1.217-2.11l1.715-2.97a1.406 1.406 0 1 1 2.436 1.406l-1.715 2.97a1.4 1.4 0 0 1-1.219.7zm0 0" data-name="Path 9777"/>
            <path id="prefix__Path_9778" d="M28.89 8.91a1.406 1.406 0 0 1-1.217-2.11l2-3.471a1.406 1.406 0 1 1 2.436 1.406l-2 3.471a1.406 1.406 0 0 1-1.219.7zm0 0" data-name="Path 9778"/>
            <path id="prefix__Path_9779" d="M24.607 39.531h-7.036a1.407 1.407 0 0 1-1.406-1.406v-4.869a1.407 1.407 0 0 1 1.406-1.406h7.036a1.407 1.407 0 0 1 1.406 1.406v4.869a1.406 1.406 0 0 1-1.406 1.406zm-5.629-2.812H23.2v-2.057h-4.223zm0 0" data-name="Path 9779"/>
            <path id="prefix__Path_9780" d="M23.165 44.4h-4.153a2.85 2.85 0 0 1-2.847-2.848v-3.427a1.406 1.406 0 0 1 2.813 0v3.427a.041.041 0 0 0 .035.035h4.153a.041.041 0 0 0 .035-.035v-3.427a1.406 1.406 0 0 1 2.813 0v3.427a2.851 2.851 0 0 1-2.849 2.848zm0 0" data-name="Path 9780"/>
        </g>
    </g>
</svg>
