<svg xmlns="http://www.w3.org/2000/svg" width="24" height="24" viewBox="0 0 24 24">
    <defs>
        <clipPath id="prefix__clip-path">
            <path id="prefix__Rectangle_191" d="M0 0H24V24H0z" class="prefix__cls-1" data-name="Rectangle 191"/>
        </clipPath>
        <style>
            .prefix__cls-1{fill:#fff}
        </style>
    </defs>
    <g id="prefix__Mask_Group_81" data-name="Mask Group 81">
        <path id="prefix__apple" d="M17.927 6.228A5.256 5.256 0 0 0 19.2 2.4a5.328 5.328 0 0 0-3.6 1.824 5 5 0 0 0-1.2 3.708 4.428 4.428 0 0 0 3.528-1.7zm3.024 8.927a5.412 5.412 0 0 1 2.592-4.572 5.592 5.592 0 0 0-4.392-2.4c-1.872-.192-3.6 1.092-4.6 1.092s-2.4-1.068-3.96-1.044a5.9 5.9 0 0 0-4.968 3.036c-2.112 3.672-.54 9.131 1.572 12.1.96 1.452 2.16 3.1 3.744 3.036s2.1-.984 3.936-.984 2.4.984 3.96.948 2.664-1.488 3.672-2.94A13.2 13.2 0 0 0 24.166 20a5.292 5.292 0 0 1-3.216-4.848z" class="prefix__cls-1" transform="translate(-2.397 -2.4)"/>
    </g>
</svg>
