<svg xmlns="http://www.w3.org/2000/svg" width="24" height="24" viewBox="0 0 24 24">
    <defs>
        <clipPath id="prefix__clip-path">
            <path id="prefix__Rectangle_191" d="M0 0H24V24H0z" class="prefix__cls-1" data-name="Rectangle 191"/>
        </clipPath>
        <style>
            .prefix__cls-1{fill:#fff}
        </style>
    </defs>
    <g id="prefix__Mask_Group_80" data-name="Mask Group 80">
        <g id="prefix__Android" transform="translate(.001)">
            <path id="prefix__Path_2387" d="M0 0h24v24H0z" data-name="Path 2387" transform="translate(0 .001)" style="fill:none"/>
            <path id="prefix__Path_2388" d="M6 18a1 1 0 0 0 1 1h1v3.5a1.5 1.5 0 0 0 3 0V19h2v3.5a1.5 1.5 0 1 0 3 0V19h1a1 1 0 0 0 1-1V8H6zM3.5 8A1.5 1.5 0 0 0 2 9.5v7a1.5 1.5 0 0 0 3 0v-7A1.5 1.5 0 0 0 3.5 8zm17 0A1.5 1.5 0 0 0 19 9.5v7a1.5 1.5 0 1 0 3 0v-7A1.5 1.5 0 0 0 20.5 8zm-4.97-5.84l1.3-1.3a.5.5 0 0 0-.7-.7l-1.48 1.475a5.941 5.941 0 0 0-5.315 0L7.85.145a.5.5 0 1 0-.7.7l1.31 1.31A6.007 6.007 0 0 0 6 7h12a5.979 5.979 0 0 0-2.47-4.84zM10 5H9V4h1zm5 0h-1V4h1z" class="prefix__cls-1" data-name="Path 2388" transform="translate(0 .001)"/>
        </g>
    </g>
</svg>
