<svg xmlns="http://www.w3.org/2000/svg" width="24" height="24" viewBox="0 0 24 24">
    <defs>
        <clipPath id="prefix__clip-path">
            <path id="prefix__Rectangle_456" d="M0 0H24V24H0z" data-name="Rectangle 456" transform="translate(171 3711)" style="stroke:#737373;fill:none"/>
        </clipPath>
    </defs>
    <g id="prefix__Mask_Group_92" data-name="Mask Group 92" transform="translate(-171 -3711)">
        <g id="prefix__star" style="fill:none">
            <path d="M23.363 8.584l-7.378-1.127L12.678.413a.781.781 0 0 0-1.357 0L8.015 7.457.637 8.584a.75.75 0 0 0-.423 1.265l5.36 5.494-1.267 7.767a.751.751 0 0 0 1.1.777L12 20.245l6.59 3.643a.75.75 0 0 0 1.1-.777l-1.267-7.767 5.36-5.494a.751.751 0 0 0-.423-1.266z" style="stroke:none" transform="translate(171 3711)"/>
            <path d="M12 1.32L8.92 7.883l-.227.483-.527.08L1.27 9.5l5.02 5.146.352.36-.081.499-1.184 7.259 6.14-3.393.483-.268.484.268 6.14 3.394-1.185-7.259-.081-.498.352-.361 5.021-5.147-6.897-1.053-.527-.081-.227-.483L12 1.32m0-1.303c.277 0 .554.132.678.395l3.307 7.044 7.378 1.127c.605.093.848.83.423 1.266l-5.36 5.494 1.267 7.767c.08.488-.31.872-.743.872-.12 0-.243-.03-.36-.095L12 20.245l-6.59 3.642c-.118.066-.241.095-.361.095-.434 0-.821-.389-.742-.872l1.267-7.767-5.36-5.494c-.425-.435-.183-1.172.423-1.265l7.378-1.127L11.321.413c.123-.263.401-.395.678-.395z" style="fill:#737373;stroke:none" transform="translate(171 3711)"/>
        </g>
    </g>
</svg>
